<svg xmlns="http://www.w3.org/2000/svg" viewBox="0 0 256 256" width="256" height="256" shape-rendering="crispEdges">
  <title>像素小猫</title>
  <rect x="96" y="24" width="8" height="8" fill="#f36b2a"/>
  <rect x="104" y="24" width="8" height="8" fill="#f36b2a"/>
  <rect x="96" y="32" width="8" height="8" fill="#f36b2a"/>
  <rect x="104" y="32" width="8" height="8" fill="#f36b2a"/>
  <rect x="96" y="40" width="8" height="8" fill="#f36b2a"/>
  <rect x="104" y="40" width="8" height="8" fill="#f36b2a"/>
  <rect x="80" y="48" width="8" height="8" fill="#f36b2a"/>
  <rect x="88" y="48" width="8" height="8" fill="#f36b2a"/>
  <rect x="96" y="48" width="8" height="8" fill="#f36b2a"/>
  <rect x="104" y="48" width="8" height="8" fill="#f36b2a"/>
  <rect x="112" y="48" width="8" height="8" fill="#f36b2a"/>
  <rect x="120" y="48" width="8" height="8" fill="#f36b2a"/>
  <rect x="80" y="56" width="8" height="8" fill="#f36b2a"/>
  <rect x="88" y="56" width="8" height="8" fill="#f36b2a"/>
  <rect x="96" y="56" width="8" height="8" fill="#f36b2a"/>
  <rect x="104" y="56" width="8" height="8" fill="#f36b2a"/>
  <rect x="112" y="56" width="8" height="8" fill="#f36b2a"/>
  <rect x="120" y="56" width="8" height="8" fill="#f36b2a"/>
  <rect x="56" y="64" width="8" height="8" fill="#f36b2a"/>
  <rect x="64" y="64" width="8" height="8" fill="#f36b2a"/>
  <rect x="72" y="64" width="8" height="8" fill="#f36b2a"/>
  <rect x="96" y="64" width="8" height="8" fill="#f36b2a"/>
  <rect x="104" y="64" width="8" height="8" fill="#f36b2a"/>
  <rect x="112" y="64" width="8" height="8" fill="#f36b2a"/>
  <rect x="120" y="64" width="8" height="8" fill="#f36b2a"/>
  <rect x="208" y="64" width="8" height="8" fill="#f36b2a"/>
  <rect x="216" y="64" width="8" height="8" fill="#f36b2a"/>
  <rect x="56" y="72" width="8" height="8" fill="#f36b2a"/>
  <rect x="64" y="72" width="8" height="8" fill="#f36b2a"/>
  <rect x="72" y="72" width="8" height="8" fill="#f36b2a"/>
  <rect x="96" y="72" width="8" height="8" fill="#f36b2a"/>
  <rect x="104" y="72" width="8" height="8" fill="#f36b2a"/>
  <rect x="112" y="72" width="8" height="8" fill="#f36b2a"/>
  <rect x="120" y="72" width="8" height="8" fill="#f36b2a"/>
  <rect x="208" y="72" width="8" height="8" fill="#f36b2a"/>
  <rect x="216" y="72" width="8" height="8" fill="#f36b2a"/>
  <rect x="40" y="80" width="8" height="8" fill="#f36b2a"/>
  <rect x="48" y="80" width="8" height="8" fill="#f36b2a"/>
  <rect x="56" y="80" width="8" height="8" fill="#f36b2a"/>
  <rect x="64" y="80" width="8" height="8" fill="#f36b2a"/>
  <rect x="72" y="80" width="8" height="8" fill="#f36b2a"/>
  <rect x="80" y="80" width="8" height="8" fill="#f36b2a"/>
  <rect x="88" y="80" width="8" height="8" fill="#f36b2a"/>
  <rect x="96" y="80" width="8" height="8" fill="#f36b2a"/>
  <rect x="104" y="80" width="8" height="8" fill="#f36b2a"/>
  <rect x="112" y="80" width="8" height="8" fill="#f36b2a"/>
  <rect x="120" y="80" width="8" height="8" fill="#f36b2a"/>
  <rect x="192" y="80" width="8" height="8" fill="#f36b2a"/>
  <rect x="200" y="80" width="8" height="8" fill="#f36b2a"/>
  <rect x="40" y="88" width="8" height="8" fill="#f36b2a"/>
  <rect x="48" y="88" width="8" height="8" fill="#f36b2a"/>
  <rect x="56" y="88" width="8" height="8" fill="#f36b2a"/>
  <rect x="64" y="88" width="8" height="8" fill="#f36b2a"/>
  <rect x="72" y="88" width="8" height="8" fill="#f36b2a"/>
  <rect x="80" y="88" width="8" height="8" fill="#f36b2a"/>
  <rect x="88" y="88" width="8" height="8" fill="#f36b2a"/>
  <rect x="96" y="88" width="8" height="8" fill="#f36b2a"/>
  <rect x="104" y="88" width="8" height="8" fill="#f36b2a"/>
  <rect x="112" y="88" width="8" height="8" fill="#f36b2a"/>
  <rect x="120" y="88" width="8" height="8" fill="#f36b2a"/>
  <rect x="192" y="88" width="8" height="8" fill="#f36b2a"/>
  <rect x="200" y="88" width="8" height="8" fill="#f36b2a"/>
  <rect x="40" y="96" width="8" height="8" fill="#f36b2a"/>
  <rect x="48" y="96" width="8" height="8" fill="#f36b2a"/>
  <rect x="56" y="96" width="8" height="8" fill="#f36b2a"/>
  <rect x="64" y="96" width="8" height="8" fill="#f36b2a"/>
  <rect x="72" y="96" width="8" height="8" fill="#f36b2a"/>
  <rect x="80" y="96" width="8" height="8" fill="#f36b2a"/>
  <rect x="88" y="96" width="8" height="8" fill="#f36b2a"/>
  <rect x="96" y="96" width="8" height="8" fill="#f36b2a"/>
  <rect x="104" y="96" width="8" height="8" fill="#f36b2a"/>
  <rect x="112" y="96" width="8" height="8" fill="#f36b2a"/>
  <rect x="120" y="96" width="8" height="8" fill="#f36b2a"/>
  <rect x="192" y="96" width="8" height="8" fill="#f36b2a"/>
  <rect x="200" y="96" width="8" height="8" fill="#f36b2a"/>
  <rect x="56" y="104" width="8" height="8" fill="#f36b2a"/>
  <rect x="64" y="104" width="8" height="8" fill="#f36b2a"/>
  <rect x="72" y="104" width="8" height="8" fill="#f36b2a"/>
  <rect x="80" y="104" width="8" height="8" fill="#f36b2a"/>
  <rect x="88" y="104" width="8" height="8" fill="#f36b2a"/>
  <rect x="96" y="104" width="8" height="8" fill="#f36b2a"/>
  <rect x="104" y="104" width="8" height="8" fill="#f36b2a"/>
  <rect x="112" y="104" width="8" height="8" fill="#f36b2a"/>
  <rect x="120" y="104" width="8" height="8" fill="#f36b2a"/>
  <rect x="128" y="104" width="8" height="8" fill="#f36b2a"/>
  <rect x="136" y="104" width="8" height="8" fill="#f36b2a"/>
  <rect x="176" y="104" width="8" height="8" fill="#f36b2a"/>
  <rect x="184" y="104" width="8" height="8" fill="#f36b2a"/>
  <rect x="56" y="112" width="8" height="8" fill="#f36b2a"/>
  <rect x="64" y="112" width="8" height="8" fill="#f36b2a"/>
  <rect x="72" y="112" width="8" height="8" fill="#f36b2a"/>
  <rect x="80" y="112" width="8" height="8" fill="#f36b2a"/>
  <rect x="88" y="112" width="8" height="8" fill="#f36b2a"/>
  <rect x="96" y="112" width="8" height="8" fill="#f36b2a"/>
  <rect x="104" y="112" width="8" height="8" fill="#f36b2a"/>
  <rect x="112" y="112" width="8" height="8" fill="#f36b2a"/>
  <rect x="120" y="112" width="8" height="8" fill="#f36b2a"/>
  <rect x="128" y="112" width="8" height="8" fill="#f36b2a"/>
  <rect x="136" y="112" width="8" height="8" fill="#f36b2a"/>
  <rect x="176" y="112" width="8" height="8" fill="#f36b2a"/>
  <rect x="184" y="112" width="8" height="8" fill="#f36b2a"/>
  <rect x="40" y="120" width="8" height="8" fill="#f36b2a"/>
  <rect x="48" y="120" width="8" height="8" fill="#f36b2a"/>
  <rect x="80" y="120" width="8" height="8" fill="#f36b2a"/>
  <rect x="88" y="120" width="8" height="8" fill="#f36b2a"/>
  <rect x="96" y="120" width="8" height="8" fill="#f36b2a"/>
  <rect x="104" y="120" width="8" height="8" fill="#f36b2a"/>
  <rect x="112" y="120" width="8" height="8" fill="#f36b2a"/>
  <rect x="120" y="120" width="8" height="8" fill="#f36b2a"/>
  <rect x="128" y="120" width="8" height="8" fill="#f36b2a"/>
  <rect x="136" y="120" width="8" height="8" fill="#f36b2a"/>
  <rect x="144" y="120" width="8" height="8" fill="#f36b2a"/>
  <rect x="152" y="120" width="8" height="8" fill="#f36b2a"/>
  <rect x="160" y="120" width="8" height="8" fill="#f36b2a"/>
  <rect x="168" y="120" width="8" height="8" fill="#f36b2a"/>
  <rect x="40" y="128" width="8" height="8" fill="#f36b2a"/>
  <rect x="48" y="128" width="8" height="8" fill="#f36b2a"/>
  <rect x="80" y="128" width="8" height="8" fill="#f36b2a"/>
  <rect x="88" y="128" width="8" height="8" fill="#f36b2a"/>
  <rect x="96" y="128" width="8" height="8" fill="#f36b2a"/>
  <rect x="104" y="128" width="8" height="8" fill="#f36b2a"/>
  <rect x="112" y="128" width="8" height="8" fill="#f36b2a"/>
  <rect x="120" y="128" width="8" height="8" fill="#f36b2a"/>
  <rect x="128" y="128" width="8" height="8" fill="#f36b2a"/>
  <rect x="136" y="128" width="8" height="8" fill="#f36b2a"/>
  <rect x="144" y="128" width="8" height="8" fill="#f36b2a"/>
  <rect x="152" y="128" width="8" height="8" fill="#f36b2a"/>
  <rect x="160" y="128" width="8" height="8" fill="#f36b2a"/>
  <rect x="168" y="128" width="8" height="8" fill="#f36b2a"/>
  <rect x="40" y="136" width="8" height="8" fill="#f36b2a"/>
  <rect x="48" y="136" width="8" height="8" fill="#f36b2a"/>
  <rect x="56" y="136" width="8" height="8" fill="#f36b2a"/>
  <rect x="64" y="136" width="8" height="8" fill="#f36b2a"/>
  <rect x="72" y="136" width="8" height="8" fill="#f36b2a"/>
  <rect x="80" y="136" width="8" height="8" fill="#f36b2a"/>
  <rect x="88" y="136" width="8" height="8" fill="#f36b2a"/>
  <rect x="96" y="136" width="8" height="8" fill="#f36b2a"/>
  <rect x="104" y="136" width="8" height="8" fill="#f36b2a"/>
  <rect x="112" y="136" width="8" height="8" fill="#f36b2a"/>
  <rect x="120" y="136" width="8" height="8" fill="#f36b2a"/>
  <rect x="128" y="136" width="8" height="8" fill="#f36b2a"/>
  <rect x="136" y="136" width="8" height="8" fill="#f36b2a"/>
  <rect x="144" y="136" width="8" height="8" fill="#f36b2a"/>
  <rect x="152" y="136" width="8" height="8" fill="#f36b2a"/>
  <rect x="40" y="144" width="8" height="8" fill="#f36b2a"/>
  <rect x="48" y="144" width="8" height="8" fill="#f36b2a"/>
  <rect x="56" y="144" width="8" height="8" fill="#f36b2a"/>
  <rect x="64" y="144" width="8" height="8" fill="#f36b2a"/>
  <rect x="72" y="144" width="8" height="8" fill="#f36b2a"/>
  <rect x="80" y="144" width="8" height="8" fill="#f36b2a"/>
  <rect x="88" y="144" width="8" height="8" fill="#f36b2a"/>
  <rect x="96" y="144" width="8" height="8" fill="#f36b2a"/>
  <rect x="104" y="144" width="8" height="8" fill="#f36b2a"/>
  <rect x="112" y="144" width="8" height="8" fill="#f36b2a"/>
  <rect x="120" y="144" width="8" height="8" fill="#f36b2a"/>
  <rect x="128" y="144" width="8" height="8" fill="#f36b2a"/>
  <rect x="136" y="144" width="8" height="8" fill="#f36b2a"/>
  <rect x="144" y="144" width="8" height="8" fill="#f36b2a"/>
  <rect x="152" y="144" width="8" height="8" fill="#f36b2a"/>
  <rect x="72" y="176" width="8" height="8" fill="#f36b2a"/>
  <rect x="80" y="176" width="8" height="8" fill="#f36b2a"/>
  <rect x="120" y="176" width="8" height="8" fill="#f36b2a"/>
  <rect x="128" y="176" width="8" height="8" fill="#f36b2a"/>
  <rect x="72" y="184" width="8" height="8" fill="#f36b2a"/>
  <rect x="80" y="184" width="8" height="8" fill="#f36b2a"/>
  <rect x="120" y="184" width="8" height="8" fill="#f36b2a"/>
  <rect x="128" y="184" width="8" height="8" fill="#f36b2a"/>
  <rect x="56" y="192" width="8" height="8" fill="#f36b2a"/>
  <rect x="64" y="192" width="8" height="8" fill="#f36b2a"/>
  <rect x="72" y="192" width="8" height="8" fill="#f36b2a"/>
  <rect x="80" y="192" width="8" height="8" fill="#f36b2a"/>
  <rect x="88" y="192" width="8" height="8" fill="#f36b2a"/>
  <rect x="112" y="192" width="8" height="8" fill="#f36b2a"/>
  <rect x="120" y="192" width="8" height="8" fill="#f36b2a"/>
  <rect x="128" y="192" width="8" height="8" fill="#f36b2a"/>
  <rect x="136" y="192" width="8" height="8" fill="#f36b2a"/>
  <rect x="56" y="200" width="8" height="8" fill="#f36b2a"/>
  <rect x="64" y="200" width="8" height="8" fill="#f36b2a"/>
  <rect x="72" y="200" width="8" height="8" fill="#f36b2a"/>
  <rect x="80" y="200" width="8" height="8" fill="#f36b2a"/>
  <rect x="88" y="200" width="8" height="8" fill="#f36b2a"/>
  <rect x="112" y="200" width="8" height="8" fill="#f36b2a"/>
  <rect x="120" y="200" width="8" height="8" fill="#f36b2a"/>
  <rect x="128" y="200" width="8" height="8" fill="#f36b2a"/>
  <rect x="136" y="200" width="8" height="8" fill="#f36b2a"/>
  <rect x="56" y="120" width="8" height="8" fill="#c9531e"/>
  <rect x="64" y="120" width="8" height="8" fill="#c9531e"/>
  <rect x="72" y="120" width="8" height="8" fill="#c9531e"/>
  <rect x="56" y="128" width="8" height="8" fill="#c9531e"/>
  <rect x="64" y="128" width="8" height="8" fill="#c9531e"/>
  <rect x="72" y="128" width="8" height="8" fill="#c9531e"/>
  <rect x="56" y="152" width="8" height="8" fill="#c9531e"/>
  <rect x="64" y="152" width="8" height="8" fill="#c9531e"/>
  <rect x="72" y="152" width="8" height="8" fill="#c9531e"/>
  <rect x="80" y="152" width="8" height="8" fill="#c9531e"/>
  <rect x="88" y="152" width="8" height="8" fill="#c9531e"/>
  <rect x="96" y="152" width="8" height="8" fill="#c9531e"/>
  <rect x="104" y="152" width="8" height="8" fill="#c9531e"/>
  <rect x="112" y="152" width="8" height="8" fill="#c9531e"/>
  <rect x="120" y="152" width="8" height="8" fill="#c9531e"/>
  <rect x="128" y="152" width="8" height="8" fill="#c9531e"/>
  <rect x="136" y="152" width="8" height="8" fill="#c9531e"/>
  <rect x="144" y="152" width="8" height="8" fill="#c9531e"/>
  <rect x="152" y="152" width="8" height="8" fill="#c9531e"/>
  <rect x="56" y="160" width="8" height="8" fill="#c9531e"/>
  <rect x="64" y="160" width="8" height="8" fill="#c9531e"/>
  <rect x="72" y="160" width="8" height="8" fill="#c9531e"/>
  <rect x="80" y="160" width="8" height="8" fill="#c9531e"/>
  <rect x="88" y="160" width="8" height="8" fill="#c9531e"/>
  <rect x="96" y="160" width="8" height="8" fill="#c9531e"/>
  <rect x="104" y="160" width="8" height="8" fill="#c9531e"/>
  <rect x="112" y="160" width="8" height="8" fill="#c9531e"/>
  <rect x="120" y="160" width="8" height="8" fill="#c9531e"/>
  <rect x="128" y="160" width="8" height="8" fill="#c9531e"/>
  <rect x="136" y="160" width="8" height="8" fill="#c9531e"/>
  <rect x="144" y="160" width="8" height="8" fill="#c9531e"/>
  <rect x="152" y="160" width="8" height="8" fill="#c9531e"/>
  <rect x="56" y="168" width="8" height="8" fill="#c9531e"/>
  <rect x="64" y="168" width="8" height="8" fill="#c9531e"/>
  <rect x="72" y="168" width="8" height="8" fill="#c9531e"/>
  <rect x="80" y="168" width="8" height="8" fill="#c9531e"/>
  <rect x="88" y="168" width="8" height="8" fill="#c9531e"/>
  <rect x="96" y="168" width="8" height="8" fill="#c9531e"/>
  <rect x="104" y="168" width="8" height="8" fill="#c9531e"/>
  <rect x="112" y="168" width="8" height="8" fill="#c9531e"/>
  <rect x="120" y="168" width="8" height="8" fill="#c9531e"/>
  <rect x="128" y="168" width="8" height="8" fill="#c9531e"/>
  <rect x="136" y="168" width="8" height="8" fill="#c9531e"/>
  <rect x="144" y="168" width="8" height="8" fill="#c9531e"/>
  <rect x="152" y="168" width="8" height="8" fill="#c9531e"/>
  <rect x="80" y="64" width="8" height="8" fill="#ffffff"/>
  <rect x="80" y="72" width="8" height="8" fill="#ffffff"/>
</svg>